<?xml version="1.0" encoding="utf-8"?>
<!-- Generator: Adobe Illustrator 24.1.1, SVG Export Plug-In . SVG Version: 6.00 Build 0)  -->
<svg version="1.1" id="Calque_1" xmlns="http://www.w3.org/2000/svg" xmlns:xlink="http://www.w3.org/1999/xlink" x="0px" y="0px"
	 viewBox="0 0 511 111.2" style="enable-background:new 0 0 511 111.2;" xml:space="preserve">
<style type="text/css">
	.st0{fill:#FFD400;}
	.st1{fill:#030402;}
	.st2{fill:#FFFFFF;}
	.st3{fill:#C52E25;}
</style>
<polygon class="st0" points="491.4,111.2 77,111.2 96.6,0 511,0 "/>
<g>
	<g>
		<rect x="58.2" y="28.1" class="st1" width="208.5" height="55.6"/>
		<g>
			<path class="st2" d="M86.6,73.4c-9.5,0-16.5-7-16.5-17.2C70,46.1,77,39,86.6,39c9.6,0,16.6,7.1,16.6,17.2
				C103.2,66.4,96.1,73.4,86.6,73.4z M86.6,47.4c-4.6,0-6.8,3.8-6.8,8.9c0,5.1,2.2,8.8,6.8,8.8c4.6,0,6.8-4.2,6.8-8.8
				C93.4,51.2,91.2,47.4,86.6,47.4z"/>
			<path class="st2" d="M172.5,73.4c-5.8,0-11.5-1.5-15.4-3.8l3.2-6.6c3.9,1.9,8,3,12.7,3c3.8,0,4.9-0.8,4.9-2.5
				c0-1.5-1.3-2.3-5.4-3.3c-8.8-2.4-14.4-4.3-14.4-11.3c0-6.8,6.1-9.8,14.7-9.8c4.6,0,9.6,1.3,13.5,3.2l-3.1,6.8
				c-3.6-1.8-7.6-2.6-10.7-2.6c-3.9,0-4.9,0.7-4.9,2.1c0,1.4,1.1,2,7.6,3.8c6.6,2,12.2,4.1,12.2,10.7
				C187.5,70.7,180.8,73.4,172.5,73.4z"/>
			<path class="st2" d="M220.8,59h-21.9c0.4,4.5,4,6.2,7.5,6.2c2.6,0,4.9-0.9,6.3-2.3l6.8,5.1c-2.9,3.4-8.2,5.3-13.1,5.3
				c-10.6,0-17.2-6.7-17.2-17.2c0-10.1,7-17.2,16.3-17.2c9.8,0,15.4,7.8,15.4,17.2C221,57.5,220.9,58.4,220.8,59z M205,46.6
				c-3.5,0-5.6,2.6-6,5.9h12.6C211.3,49.5,209.4,46.6,205,46.6z"/>
			<path class="st2" d="M240.7,73.4c-3.2,0-6-1.1-7.7-2.6v13h-9.6V39.7h9.6v2.1c1.8-1.4,4.3-2.8,7.7-2.8c7.8,0,14.2,5.3,14.2,17.6
				C254.9,66.5,249.8,73.4,240.7,73.4z M238.9,47.2c-3,0-4.5,1.1-5.9,2.8v12.4c1.5,1.8,3.7,2.8,6.5,2.8c3.7,0,5.7-2.9,5.7-8.4
				C245.2,50,242.6,47.2,238.9,47.2z"/>
			<path class="st2" d="M138.2,68.4V54.1c0-9.3-4.2-15.1-13.5-15.1c-3.8,0-6.9,1.3-8.6,2.9v-2.2h-9.6v28.8h0c0,0,0,0,0,0
				c0,2.7,2.2,4.8,4.8,4.8c2.6,0,4.8-2.1,4.8-4.8c0-0.1,0-13.9,0-13.9c0-5.7,2.3-7.5,6.2-7.5c4,0,6.2,1.8,6.2,7.7v13.6c0,0,0,0,0,0
				c0,2.7,2.1,4.8,4.8,4.8C136.1,73.3,138.2,71.2,138.2,68.4C138.2,68.5,138.2,68.5,138.2,68.4z"/>
			<path class="st2" d="M148.2,49.6c1.5,0,2.7-0.5,3.7-1.6c1-1.1,1.5-2.3,1.5-3.8c0-1.5-0.5-2.7-1.5-3.7c-1.1-1.1-2.3-1.6-3.7-1.6
				c-1.5,0-2.7,0.5-3.7,1.6c-1,1-1.6,2.3-1.6,3.7c0,1.4,0.5,2.7,1.6,3.8C145.5,49.1,146.7,49.6,148.2,49.6z M153,51.6h-9.6v16.8
				c0,0,0,0.1,0,0.1c0,0,0,0.1,0,0.1v0l0,0c0,1.3,0.5,2.4,1.4,3.3c1,0.9,2.1,1.4,3.4,1.4c1.3,0,2.5-0.5,3.4-1.4
				c0.9-0.9,1.4-2.1,1.4-3.4c0,0,0-0.1,0-0.1V51.6z"/>
		</g>
		<g>
			<rect x="2.6" y="28.1" class="st3" width="55.6" height="55.6"/>
			<path class="st2" d="M50,53.9c-0.6-0.6-1.3-0.9-2.1-0.9c0,0,0,0,0,0c-0.2,0-0.6,0-1.1,0h-5.9c-0.3,0-0.6-0.1-0.8-0.4
				c-0.1-0.1-0.2-0.2-0.3-0.4c-0.2-0.4-0.1-1,0.3-1.3l6.6-6.6c1.4-1.4,1.4-3.5,0.1-4.9c-1.3-1.3-3.5-1.3-4.8,0.1l-6.6,6.6
				c-0.3,0.4-0.9,0.5-1.3,0.3c-0.4-0.2-0.7-0.6-0.7-1.1v-7c0-0.8-0.3-1.6-0.9-2.1c-0.6-0.5-1.3-0.8-2-0.8c-1.6,0-2.9,1.3-2.9,3v7
				c0,0.5-0.3,0.9-0.7,1.1c-0.4,0.2-1,0.1-1.3-0.3l-6.6-6.6c-1.4-1.3-3.5-1.4-4.8-0.1c-1.3,1.3-1.3,3.5,0.1,4.8l6.6,6.6
				c0.4,0.3,0.5,0.9,0.3,1.3c-0.2,0.5-0.6,0.8-1.1,0.8l-7,0c-0.8,0-1.5,0.3-2.1,0.9c-0.5,0.5-0.8,1.2-0.8,2c0,1.6,1.3,2.9,2.9,2.9h7
				c0.5,0,0.9,0.3,1.1,0.7c0.2,0.5,0.1,1-0.3,1.3l-6.6,6.6c-1.4,1.4-1.4,3.5-0.1,4.8c1.3,1.3,3.5,1.3,4.8-0.1l6.6-6.6
				c0.3-0.3,0.9-0.4,1.3-0.3c0.5,0.2,0.7,0.6,0.7,1.1v7c0,1.6,1.3,3,2.9,3c1.6,0,2.9-1.3,2.9-3l0-7c0-0.5,0.3-0.9,0.7-1.1
				c0.4-0.2,1-0.1,1.3,0.3l6.6,6.6c1.4,1.4,3.5,1.4,4.8,0.1c1.3-1.3,1.3-3.5-0.1-4.8l-6.6-6.6c-0.3-0.3-0.5-0.9-0.3-1.3
				c0.2-0.4,0.6-0.7,1.1-0.7h7c0.8,0,1.6-0.3,2.1-0.9c0.5-0.5,0.8-1.3,0.8-2C50.9,55.1,50.6,54.4,50,53.9z M32.6,61
				c0,1.3-1.1,2.4-2.4,2.4c-1.3,0-2.4-1.1-2.4-2.4V50.2c0-1.3,1.1-2.4,2.4-2.4c1.3,0,2.4,1.1,2.4,2.4V61z"/>
		</g>
	</g>
	<g>
		<g>
			<path d="M279.6,36.1h3.1l-2.2,12.6h5.6l-0.5,2.8h-8.8L279.6,36.1z"/>
			<path d="M286.8,42.4l3.1-6.3h3.3l-3.6,6.3H286.8z"/>
			<path d="M294.5,40.4h2.8l-2,11.1h-2.8L294.5,40.4z M294.7,36.7c0-1,0.8-1.8,1.8-1.8s1.8,0.8,1.8,1.8s-0.8,1.8-1.8,1.8
				S294.7,37.6,294.7,36.7z"/>
			<path d="M300.5,40.4h2.8l-0.1,0.8c0.8-0.7,1.8-1.3,3.1-1.3c2.5,0,4.1,1.7,3.5,4.9l-1.1,6.6h-2.8L307,45c0.3-1.5-0.4-2.4-1.7-2.4
				c-1.3,0-2.2,0.9-2.7,1.6l0,0l-1.3,7.3h-2.8L300.5,40.4z"/>
			<path d="M314.3,40.4l0.2-1.3c0.5-2.7,2-4.1,4.4-4.1c1.3,0,2.1,0.4,2.8,0.8l-1.5,2.2c-0.3-0.3-0.7-0.5-1.3-0.5
				c-0.9,0-1.5,0.6-1.7,1.6l-0.2,1.3h3.2l-0.4,2.5h-3.2l-2.4,14h-2.8l2.5-14h-2l0.5-2.5H314.3z"/>
			<path d="M332.1,45.3c0,3.5-2.7,6.6-6.6,6.6c-3.4,0-5.5-2.3-5.5-5.3c0-3.5,2.7-6.6,6.6-6.6C330,40,332.1,42.2,332.1,45.3z
				 M329.1,45.3c0-1.6-1-2.7-2.6-2.7c-2.1,0-3.5,1.9-3.5,4c0,1.6,1,2.7,2.6,2.7C327.7,49.3,329.1,47.4,329.1,45.3z"/>
			<path d="M347.2,48.3c0,1.8-1.5,3.7-4.2,3.7c-1.9,0-3.3-0.9-4.2-2.2l2-1.5c0.6,1,1.4,1.5,2.4,1.5c0.8,0,1.3-0.6,1.3-1.3
				c0-1.8-4.2-1.5-4.2-4.9c0-1.8,1.5-3.5,4.1-3.5c1.7,0,3.2,0.9,3.9,2l-2,1.5c-0.4-0.7-1-1.3-1.9-1.3c-0.8,0-1.4,0.6-1.4,1.1
				C343,45.1,347.2,44.9,347.2,48.3z"/>
			<path d="M358,40.4h2.8l-1.1,6.3c-0.6,3.3-2.3,5.2-5.5,5.2c-3.2,0-5.1-2-4.5-5.6l1.1-6h2.8l-1.1,6.3c-0.3,1.7,0.4,2.6,2,2.6
				c1.3,0,2.2-0.9,2.5-2.6L358,40.4z"/>
			<path d="M363.8,40.4h2.8l-0.2,1.2c0.7-0.8,1.6-1.4,3-1.4c0.4,0,0.7,0,1,0.2l-0.5,2.8c-0.3-0.1-0.6-0.2-1.1-0.2
				c-1.4,0-2.4,1-3,1.8l-1.2,6.8h-2.8L363.8,40.4z"/>
			<path d="M379.4,35h2.8l-2.9,16.5h-2.8L379.4,35z"/>
			<path d="M382.6,46.6c0-3.7,2.5-6.6,6.1-6.6c2.8,0,4.8,1.8,4.8,4.3c0,0.7-0.2,1.7-0.5,2.2h-7.6v0.1c0,1.9,1,2.8,2.8,2.8
				c1.3,0,2.3-0.6,3-1.5l1.8,1.8c-1.2,1.3-3,2.2-5,2.2C384.5,52,382.6,49.7,382.6,46.6z M385.8,44.5l5,0c0.2-1.1-0.4-2.2-2-2.2
				C387.3,42.3,386.3,43.2,385.8,44.5z"/>
			<path d="M402.5,48.3c0,1.8-1.5,3.7-4.2,3.7c-1.9,0-3.3-0.9-4.2-2.2l2-1.5c0.6,1,1.4,1.5,2.4,1.5c0.8,0,1.3-0.6,1.3-1.3
				c0-1.8-4.2-1.5-4.2-4.9c0-1.8,1.5-3.5,4.1-3.5c1.7,0,3.2,0.9,3.9,2l-2,1.5c-0.4-0.7-1-1.3-1.9-1.3c-0.8,0-1.4,0.6-1.4,1.1
				C398.3,45.1,402.5,44.9,402.5,48.3z"/>
			<path d="M412.2,40.4h2.8l-0.1,0.7c0.8-0.7,1.7-1.2,2.9-1.2c1.4,0,2.5,0.6,3.1,1.7c0.9-1,2.2-1.7,3.8-1.7c2.3,0,3.9,1.7,3.3,4.8
				l-1.2,6.8H424l1.2-6.6c0.3-1.5-0.4-2.2-1.5-2.2c-1.2,0-2,1-2.5,1.6c0,0.2,0,0.3-0.1,0.5l-1.2,6.8h-2.8l1.2-6.6
				c0.3-1.5-0.4-2.2-1.5-2.2c-1.2,0-2,0.9-2.5,1.6l0,0l-1.3,7.3h-2.8L412.2,40.4z"/>
			<path d="M429.9,46.6c0-3.7,2.5-6.6,6.1-6.6c2.8,0,4.8,1.8,4.8,4.3c0,0.7-0.2,1.7-0.5,2.2h-7.6v0.1c0,1.9,1,2.8,2.8,2.8
				c1.3,0,2.3-0.6,3-1.5l1.8,1.8c-1.2,1.3-3,2.2-5,2.2C431.9,52,429.9,49.7,429.9,46.6z M433.1,44.5l5,0c0.2-1.1-0.4-2.2-2-2.2
				C434.6,42.3,433.7,43.2,433.1,44.5z M435.3,38.7l2.8-3.7h3.1l-3.2,3.7H435.3z"/>
			<path d="M444.3,42.9h-2l0.5-2.5h2l0.5-2.8h2.8l-0.5,2.8h3.2l-0.4,2.5h-3.2l-0.8,4.4c-0.3,1.4,0.3,1.9,1.4,1.9
				c0.6,0,1.2-0.1,1.6-0.3l-0.4,2.4c-0.6,0.2-1.1,0.4-2,0.4c-2.7,0-3.9-1.6-3.3-4.7L444.3,42.9z"/>
			<path d="M453.2,40.4h2.8l-2,11.1h-2.8L453.2,40.4z M453.4,36.7c0-1,0.8-1.8,1.8-1.8s1.8,0.8,1.8,1.8s-0.8,1.8-1.8,1.8
				S453.4,37.6,453.4,36.7z"/>
			<path d="M457.4,46.6c0-3.7,2.5-6.6,6.1-6.6c2.8,0,4.8,1.8,4.8,4.3c0,0.7-0.2,1.7-0.5,2.2h-7.6v0.1c0,1.9,1,2.8,2.8,2.8
				c1.3,0,2.3-0.6,3-1.5l1.8,1.8c-1.2,1.3-3,2.2-5,2.2C459.3,52,457.4,49.7,457.4,46.6z M460.6,44.5l5,0c0.2-1.1-0.4-2.2-2-2.2
				C462.1,42.3,461.1,43.2,460.6,44.5z"/>
			<path d="M471.5,40.4h2.8l-0.2,1.2c0.7-0.8,1.6-1.4,3-1.4c0.4,0,0.7,0,1,0.2l-0.5,2.8c-0.3-0.1-0.6-0.2-1.1-0.2
				c-1.4,0-2.4,1-3,1.8l-1.2,6.8h-2.8L471.5,40.4z"/>
			<path d="M486.1,48.3c0,1.8-1.5,3.7-4.2,3.7c-1.9,0-3.3-0.9-4.2-2.2l2-1.5c0.6,1,1.4,1.5,2.4,1.5c0.8,0,1.3-0.6,1.3-1.3
				c0-1.8-4.2-1.5-4.2-4.9c0-1.8,1.5-3.5,4.1-3.5c1.7,0,3.2,0.9,3.9,2l-2,1.5c-0.4-0.7-1-1.3-1.9-1.3c-0.8,0-1.4,0.6-1.4,1.1
				C481.9,45.1,486.1,44.9,486.1,48.3z"/>
			<path d="M276.4,70.6c0-3.7,2.5-6.6,6.1-6.6c2.8,0,4.8,1.8,4.8,4.3c0,0.7-0.2,1.7-0.5,2.2h-7.6v0.1c0,1.9,1,2.8,2.8,2.8
				c1.3,0,2.3-0.6,3-1.5l1.8,1.8c-1.2,1.3-3,2.2-5,2.2C278.4,76,276.4,73.7,276.4,70.6z M279.6,68.5l5,0c0.2-1.1-0.4-2.2-2-2.2
				C281.1,66.3,280.1,67.2,279.6,68.5z"/>
			<path d="M290.8,66.9h-2l0.5-2.5h2l0.5-2.8h2.8l-0.5,2.8h3.2l-0.4,2.5h-3.2l-0.8,4.4c-0.3,1.4,0.3,1.9,1.4,1.9
				c0.6,0,1.2-0.1,1.6-0.3l-0.4,2.4c-0.6,0.2-1.1,0.4-2,0.4c-2.7,0-3.9-1.6-3.3-4.7L290.8,66.9z"/>
			<path d="M306.6,59h2.8l-2.9,16.5h-2.8L306.6,59z"/>
			<path d="M309.8,70.6c0-3.7,2.5-6.6,6.1-6.6c2.8,0,4.8,1.8,4.8,4.3c0,0.7-0.2,1.7-0.5,2.2h-7.6v0.1c0,1.9,1,2.8,2.8,2.8
				c1.3,0,2.3-0.6,3-1.5l1.8,1.8c-1.2,1.3-3,2.2-5,2.2C311.8,76,309.8,73.7,309.8,70.6z M313,68.5l5,0c0.2-1.1-0.4-2.2-2-2.2
				C314.5,66.3,313.5,67.2,313,68.5z"/>
			<path d="M329.7,72.3c0,1.8-1.5,3.7-4.2,3.7c-1.9,0-3.3-0.9-4.2-2.2l2-1.5c0.6,1,1.4,1.5,2.4,1.5c0.8,0,1.3-0.6,1.3-1.3
				c0-1.8-4.2-1.5-4.2-4.9c0-1.8,1.5-3.5,4.1-3.5c1.7,0,3.2,0.9,3.9,2l-2,1.5c-0.4-0.7-1-1.3-1.9-1.3c-0.8,0-1.4,0.6-1.4,1.1
				C325.5,69.1,329.7,68.9,329.7,72.3z"/>
			<path d="M340.1,64.4l0.2-1.3c0.5-2.7,2-4.1,4.4-4.1c1.3,0,2.1,0.4,2.8,0.8l-1.5,2.2c-0.3-0.3-0.7-0.5-1.3-0.5
				c-0.9,0-1.5,0.6-1.7,1.6l-0.2,1.3h3.2l-0.4,2.5h-3.2l-2.4,14h-2.8l2.5-14h-2l0.5-2.5H340.1z"/>
			<path d="M357.9,69.3c0,3.5-2.7,6.6-6.6,6.6c-3.4,0-5.5-2.3-5.5-5.3c0-3.5,2.7-6.6,6.6-6.6C355.8,64,357.9,66.2,357.9,69.3z
				 M354.9,69.3c0-1.6-1-2.7-2.6-2.7c-2.1,0-3.5,1.9-3.5,4c0,1.6,1,2.7,2.6,2.7C353.5,73.3,354.9,71.4,354.9,69.3z"/>
			<path d="M361.1,64.4h2.8l-0.2,1.2c0.7-0.8,1.6-1.4,3-1.4c0.4,0,0.7,0,1,0.2l-0.5,2.8c-0.3-0.1-0.6-0.2-1.1-0.2
				c-1.4,0-2.4,1-3,1.8l-1.2,6.8h-2.8L361.1,64.4z"/>
			<path d="M369.8,64.4h2.8l-0.1,0.7c0.8-0.7,1.7-1.2,2.9-1.2c1.4,0,2.5,0.6,3.1,1.7c0.9-1,2.2-1.7,3.8-1.7c2.3,0,3.9,1.7,3.3,4.8
				l-1.2,6.8h-2.8l1.2-6.6c0.3-1.5-0.4-2.2-1.5-2.2c-1.2,0-2,1-2.5,1.6c0,0.2,0,0.3-0.1,0.5l-1.2,6.8h-2.8l1.2-6.6
				c0.3-1.5-0.4-2.2-1.5-2.2c-1.2,0-2,0.9-2.5,1.6l0,0l-1.3,7.3h-2.8L369.8,64.4z"/>
			<path d="M387.3,72.9c0-1.7,1.2-3.2,3.9-3.7l3.7-0.6l0-0.2c0.2-1.1-0.4-1.9-1.7-1.9c-1,0-1.8,0.5-2.6,1.3l-2-1.7
				c0.9-1.2,2.6-2.1,4.7-2.1c3.4,0,4.7,2.1,4.2,5l-1.2,6.5h-2.8l0.2-0.8c-0.7,0.7-1.8,1.2-3,1.2C388.7,75.8,387.3,74.8,387.3,72.9z
				 M391.5,73.6c1.1,0,2.1-0.5,2.7-1.3l0.3-1.8l-2.8,0.5c-1.2,0.2-1.6,0.8-1.6,1.5C390.1,73.2,390.6,73.6,391.5,73.6z"/>
			<path d="M401.6,66.9h-2l0.5-2.5h2l0.5-2.8h2.8l-0.5,2.8h3.2l-0.4,2.5h-3.2l-0.8,4.4c-0.3,1.4,0.3,1.9,1.4,1.9
				c0.6,0,1.2-0.1,1.6-0.3l-0.4,2.4c-0.6,0.2-1.1,0.4-2,0.4c-2.7,0-3.9-1.6-3.3-4.7L401.6,66.9z"/>
			<path d="M410.6,64.4h2.8l-2,11.1h-2.8L410.6,64.4z M410.8,60.7c0-1,0.8-1.8,1.8-1.8s1.8,0.8,1.8,1.8s-0.8,1.8-1.8,1.8
				S410.8,61.6,410.8,60.7z"/>
			<path d="M426.7,69.3c0,3.5-2.7,6.6-6.6,6.6c-3.4,0-5.5-2.3-5.5-5.3c0-3.5,2.7-6.6,6.6-6.6C424.7,64,426.7,66.2,426.7,69.3z
				 M423.8,69.3c0-1.6-1-2.7-2.6-2.7c-2.1,0-3.5,1.9-3.5,4c0,1.6,1,2.7,2.6,2.7C422.4,73.3,423.8,71.4,423.8,69.3z"/>
			<path d="M430,64.4h2.8l-0.1,0.8c0.8-0.7,1.8-1.3,3.1-1.3c2.5,0,4.1,1.7,3.5,4.9l-1.1,6.6h-2.8l1.1-6.5c0.3-1.5-0.4-2.4-1.7-2.4
				c-1.3,0-2.2,0.9-2.7,1.6l0,0l-1.3,7.3H428L430,64.4z"/>
			<path d="M449.1,72.3c0,1.8-1.5,3.7-4.2,3.7c-1.9,0-3.3-0.9-4.2-2.2l2-1.5c0.6,1,1.4,1.5,2.4,1.5c0.8,0,1.3-0.6,1.3-1.3
				c0-1.8-4.2-1.5-4.2-4.9c0-1.8,1.5-3.5,4.1-3.5c1.7,0,3.2,0.9,3.9,2l-2,1.5c-0.4-0.7-1-1.3-1.9-1.3c-0.8,0-1.4,0.6-1.4,1.1
				C444.8,69.1,449.1,68.9,449.1,72.3z"/>
		</g>
	</g>
</g>
</svg>
