<svg xmlns="http://www.w3.org/2000/svg" viewBox="0 0 243.86 260.27"><defs><style>.cls-1{fill:#005b7d;}.cls-2{fill:#fff;}.cls-3{fill:#e3051b;}.cls-4{fill:#06a3dc;}</style></defs><title>logo</title><g id="Calque_2" data-name="Calque 2"><g id="SOUS_HOME_02" data-name="SOUS HOME 02"><rect class="cls-1" x="0.08" width="243.78" height="102.96"/><path class="cls-2" d="M32.82,25.74V55.51c0,4.76.78,8,2.33,10.16a11.41,11.41,0,0,0,9.79,4.77,11.43,11.43,0,0,0,9.82-4.77c1.56-2.13,2.34-5.33,2.34-10.16V25.74h8.35V57.53A20,20,0,0,1,60,72a20.21,20.21,0,0,1-15.06,6.31A20.08,20.08,0,0,1,24.46,57.53V25.74Z"/><path class="cls-2" d="M78.58,28.91V77.16H87V25.09a.53.53,0,0,0-.79-.46Z"/><path class="cls-2" d="M153.39,77.16h-8.46v-33c0-.49-.29-.62-.53-.38l-17.64,18a.24.24,0,0,1-.35,0l-17.64-18c-.24-.24-.53-.11-.53.38v33H99.78V25.09a.53.53,0,0,1,.9-.38l25.73,25.74a.23.23,0,0,0,.35,0l25.73-25.74a.53.53,0,0,1,.9.38Z"/><path class="cls-2" d="M219.47,77.16H211v-33c0-.49-.29-.62-.53-.38l-17.64,18a.24.24,0,0,1-.35,0l-17.64-18c-.24-.24-.53-.11-.53.38v33h-8.46V25.09a.53.53,0,0,1,.9-.38l25.73,25.74a.23.23,0,0,0,.35,0l25.73-25.74a.53.53,0,0,1,.9.38Z"/><rect class="cls-3" x="0.08" y="157.32" width="243.78" height="102.96"/><polygon class="cls-2" points="25.66 187.19 23.7 187.19 23.7 206.69 35.37 206.69 35.37 204.85 25.66 204.85 25.66 187.19"/><polygon class="cls-2" points="46.76 187.08 39.77 194.8 39.7 194.87 39.7 206.69 41.7 206.69 41.7 195.57 46.76 190.03 51.82 195.57 51.82 206.69 53.81 206.69 53.81 194.87 46.94 187.28 46.76 187.08"/><rect class="cls-2" x="43.28" y="199.39" width="6.92" height="1.78"/><path class="cls-2" d="M77.62,213.66a5.62,5.62,0,0,0-2.54-1.26,18.23,18.23,0,0,0-4.29-.4H64.05v19.49H69.9c.95,0,1.8,0,2.53-.11a13.9,13.9,0,0,0,2-.35,7.42,7.42,0,0,0,1.52-.58,5.92,5.92,0,0,0,1.15-.77A7.08,7.08,0,0,0,79,226.52a15.74,15.74,0,0,0,.72-5.08,17.93,17.93,0,0,0-.56-4.93A6.64,6.64,0,0,0,77.62,213.66Zm-11.57.2h4.53c.59,0,1.17,0,1.72,0a14.67,14.67,0,0,1,1.57.19,6.43,6.43,0,0,1,1.3.38,2.41,2.41,0,0,1,.91.6,5.24,5.24,0,0,1,1.23,2.5,17.37,17.37,0,0,1,.4,3.89,14.83,14.83,0,0,1-.57,4.4,5.41,5.41,0,0,1-1.44,2.47,5.6,5.6,0,0,1-2.11.94,17,17,0,0,1-3.89.35H66.05Z"/><polygon class="cls-2" points="85.97 222.45 94.65 222.45 94.65 220.63 85.97 220.63 85.97 213.84 96.18 213.84 96.18 212 84 212 84 231.49 96.67 231.49 96.67 229.65 85.97 229.65 85.97 222.45"/><polygon class="cls-2" points="108.86 212 106.89 212 106.89 231.49 119.16 231.49 119.16 229.65 108.86 229.65 108.86 212"/><polygon class="cls-2" points="120.42 212 117.2 218.98 119.06 218.98 122.63 212 120.42 212"/><polygon class="cls-2" points="149.91 229.53 149.5 229.53 143.19 212 141.04 212 148.13 231.49 151.16 231.49 158.73 212 156.6 212 149.91 229.53"/><polygon class="cls-2" points="162.74 222.45 171.43 222.45 171.43 220.63 162.74 220.63 162.74 213.84 172.95 213.84 172.95 212 160.78 212 160.78 231.49 173.45 231.49 173.45 229.65 162.74 229.65 162.74 222.45"/><polygon class="cls-2" points="191.79 229.42 191.7 229.42 180.88 212 177.86 212 177.86 231.49 179.75 231.49 179.75 213.91 179.82 213.91 190.74 231.49 193.68 231.49 193.68 212 191.79 212 191.79 229.42"/><rect class="cls-2" x="198.99" y="212" width="1.99" height="19.5"/><polygon class="cls-2" points="131.99 211.89 125 219.6 124.94 219.67 124.94 231.49 126.93 231.49 126.93 220.37 132 214.84 137.06 220.37 137.06 231.49 139.05 231.49 139.05 219.67 132.19 212.08 131.99 211.89"/><rect class="cls-2" x="128.52" y="224.2" width="6.92" height="1.78"/><polygon class="cls-2" points="66.05 198.23 74.25 198.23 74.25 196.41 66.05 196.41 66.05 189.03 76.2 189.03 76.2 187.19 64.05 187.19 64.05 206.69 66.05 206.69 66.05 198.23"/><polygon class="cls-2" points="80.78 195.57 85.84 190.03 90.91 195.57 90.91 206.69 92.9 206.69 92.9 194.87 86.02 187.27 85.83 187.09 78.86 194.8 78.79 194.87 78.79 206.69 80.78 206.69 80.78 195.57"/><rect class="cls-2" x="82.37" y="199.39" width="6.92" height="1.78"/><path class="cls-2" d="M108.71,196.23A5.23,5.23,0,0,0,110,192.6V192c0-2.92-1.65-4.8-4.19-4.8H97.34v19.48h9.3c2.87,0,4.39-2.35,4.39-5.2v-.65A5.12,5.12,0,0,0,108.71,196.23ZM99.32,189h6.36c2.22,0,2.46,2.1,2.46,3v.58c0,.9-.24,3-2.46,3H99.32Zm9.88,12.45c0,1-.29,3.44-2.92,3.44h-7v-7.53h7c2.57,0,2.85,2.41,2.85,3.44Z"/><path class="cls-2" d="M127.47,206.69h2.32s-3.1-6-4.54-8.4c2.37-.39,3.86-2.33,3.86-5.19v-.66c0-3.19-1.86-5.25-4.74-5.25h-8.53v19.5h2v-8.33h5.33C123.7,199.21,127.47,206.69,127.47,206.69Zm-.18-14.25v.66c0,1-.29,3.44-2.92,3.44h-6.54V189h6.54C127,189,127.29,191.41,127.29,192.44Z"/><path class="cls-2" d="M217.92,231.3h2.32s-3.1-6-4.54-8.4c2.37-.38,3.86-2.33,3.86-5.18v-.66c0-3.19-1.86-5.26-4.74-5.26h-8.53v19.5h2V223h5.32C214.15,223.83,217.92,231.3,217.92,231.3Zm-.19-14.24v.66c0,1-.28,3.43-2.91,3.43h-6.54v-7.52h6.54C217.45,213.63,217.73,216,217.73,217.06Z"/><rect class="cls-2" x="134.43" y="187.19" width="1.99" height="19.5"/><path class="cls-2" d="M157.19,200.29V193a6.33,6.33,0,0,0-2.42-5.27,8.48,8.48,0,0,0-5.17-1.53h-1a8.53,8.53,0,0,0-5.18,1.53A6.32,6.32,0,0,0,141,193v7.25a6.3,6.3,0,0,0,2.41,5.26,8.47,8.47,0,0,0,5.18,1.54h1c.29,0,.56,0,.84,0l3.24,3.93h2.17l-3.37-4.3a7.23,7.23,0,0,0,2.29-1.14A6.31,6.31,0,0,0,157.19,200.29Zm-7.59,4.89h-1c-5.13,0-5.69-3.42-5.69-4.89V193c0-1.48.56-4.9,5.69-4.9h1c5.13,0,5.69,3.42,5.69,4.9v7.25C155.29,201.76,154.73,205.18,149.6,205.18Z"/><path class="cls-2" d="M169.66,207.09h-1c-4.39,0-6.9-2.48-6.9-6.8v-13.1h1.9v13.1c0,3.25,1.68,4.89,5,4.89h1c3.32,0,5-1.64,5-4.89v-13.1h1.9v13.1C176.56,204.61,174.05,207.09,169.66,207.09Z"/><polygon class="cls-2" points="193.68 204.85 182.98 204.85 182.98 197.64 191.66 197.64 191.66 195.83 182.98 195.83 182.98 189.03 193.19 189.03 193.19 187.19 181.01 187.19 181.01 206.69 193.68 206.69 193.68 204.85"/><rect class="cls-4" y="102.65" width="243.78" height="54.65"/><path class="cls-2" d="M50.43,116.27H63.79c4.32,0,7.32,1.14,9.22,3.07a8.79,8.79,0,0,1,2.49,6.58V126a9,9,0,0,1-5.82,8.69l6.76,9.85h-9L61.7,136H58.26v8.56H50.43Zm13,13.57c2.66,0,4.2-1.29,4.2-3.35v-.08c0-2.22-1.61-3.35-4.24-3.35H58.26v6.78Z"/><path class="cls-2" d="M101.35,145c-8.72,0-15-6.5-15-14.53v-.08c0-8,6.33-14.62,15.06-14.62s15,6.5,15,14.53v.09C116.42,138.44,110.08,145,101.35,145Zm8.57-14.61a8.6,8.6,0,0,0-8.57-8.89c-5,0-8.47,4-8.47,8.8v.09a8.59,8.59,0,0,0,8.56,8.88,8.46,8.46,0,0,0,8.48-8.8Z"/><path class="cls-2" d="M140.25,137.59h-.17l-8.84-13.24v20.19h-4.89V116.27h5.29l8.61,13.37,8.6-13.37h5.29v28.27h-5V124.27Z"/><path class="cls-2" d="M187.77,119.18H170.53v9.65H186v2.91H170.53v9.89H188v2.91H167.34V116.27h20.43Z"/><path class="cls-2" d="M213.72,145c-8.56,0-14.18-6.82-14.18-14.53v-.08c0-7.72,5.7-14.62,14.26-14.62S228,122.61,228,130.32c.05,0,.05,0,0,.09C228,138.12,222.28,145,213.72,145Zm12.07-14.61c0-7-5.08-12.73-12.07-12.73s-12,5.66-12,12.64v.09c0,7,5.1,12.71,12.08,12.71s12-5.65,12-12.63Z"/><path class="cls-2" d="M28.12,116.3H15.77v8.51H28.12a2.24,2.24,0,1,1,0,4.47h-4v-2.85H15.93v18.13h8.19v-6.78h4a10.74,10.74,0,0,0,0-21.48Z"/></g></g></svg>